<svg width="36" height="36" viewBox="0 0 36 36" fill="none" xmlns="http://www.w3.org/2000/svg">
<g clip-path="url(#clip0_9082_243)">
<g filter="url(#filter0_d_9082_243)">
<rect width="36" height="36" rx="7" fill="url(#paint0_linear_9082_243)" fill-opacity="0.35" shape-rendering="crispEdges"/>
<rect x="0.5" y="0.5" width="35" height="35" rx="6.5" stroke="url(#paint1_linear_9082_243)" stroke-opacity="0.3" shape-rendering="crispEdges"/>
</g>
<path fill-rule="evenodd" clip-rule="evenodd" d="M17.6249 10.3553C19.3459 10.2705 21.0451 10.7695 22.4469 11.7713C23.6641 12.6412 24.5952 13.8458 25.1317 15.2319L22.7297 14.1861C22.4035 14.0441 22.0239 14.1934 21.8819 14.5196C21.7399 14.8459 21.8892 15.2254 22.2154 15.3675L26.027 17.0268C26.1962 17.1005 26.3889 17.0981 26.5562 17.0201C26.7235 16.9421 26.8494 16.7961 26.9018 16.6192L28.0736 12.6632C28.1747 12.322 27.98 11.9636 27.6389 11.8625C27.2978 11.7615 26.9393 11.9561 26.8383 12.2972L26.2018 14.4458C25.5598 12.9613 24.5236 11.6718 23.1961 10.7231C21.558 9.5524 19.5725 8.96935 17.5615 9.06845C15.5506 9.16755 13.632 9.94299 12.117 11.269C10.6019 12.5951 9.57916 14.394 9.21455 16.3741C9.15013 16.724 9.38155 17.0599 9.73145 17.1243C10.0814 17.1888 10.4172 16.9574 10.4817 16.6074C10.7937 14.9129 11.6689 13.3734 12.9655 12.2386C14.2621 11.1037 15.904 10.4401 17.6249 10.3553ZM26.2681 18.8699C26.618 18.9343 26.8495 19.2702 26.785 19.6201C26.4204 21.6003 25.3977 23.3992 23.8826 24.7252C22.3676 26.0513 20.449 26.8267 18.4381 26.9258C16.4271 27.0249 14.4416 26.4419 12.8035 25.2712C11.4647 24.3144 10.4221 23.0109 9.78141 21.5103L9.39703 23.9372C9.34138 24.2886 9.01139 24.5283 8.65998 24.4727C8.30858 24.417 8.06882 24.087 8.12448 23.7356L8.76991 19.6605C8.79879 19.4782 8.90448 19.317 9.06018 19.2179C9.21588 19.1187 9.40663 19.0912 9.58404 19.1421L13.5796 20.2898C13.9216 20.388 14.1191 20.7449 14.0209 21.0868C13.9227 21.4288 13.5658 21.6264 13.2239 21.5281L10.9076 20.8628C11.4497 22.2066 12.365 23.3742 13.5526 24.223C14.9545 25.2248 16.6537 25.7238 18.3746 25.639C20.0956 25.5541 21.7375 24.8905 23.0341 23.7557C24.3306 22.6209 25.2059 21.0814 25.5179 19.3868C25.5823 19.0369 25.9182 18.8055 26.2681 18.8699Z" fill="url(#paint2_linear_9082_243)"/>
</g>
<defs>
<filter id="filter0_d_9082_243" x="-6.5625" y="-6.5625" width="49.125" height="49.125" filterUnits="userSpaceOnUse" color-interpolation-filters="sRGB">
<feFlood flood-opacity="0" result="BackgroundImageFix"/>
<feColorMatrix in="SourceAlpha" type="matrix" values="0 0 0 0 0 0 0 0 0 0 0 0 0 0 0 0 0 0 127 0" result="hardAlpha"/>
<feOffset/>
<feGaussianBlur stdDeviation="3.28125"/>
<feComposite in2="hardAlpha" operator="out"/>
<feColorMatrix type="matrix" values="0 0 0 0 0 0 0 0 0 0 0 0 0 0 0 0 0 0 0.4 0"/>
<feBlend mode="normal" in2="BackgroundImageFix" result="effect1_dropShadow_9082_243"/>
<feBlend mode="normal" in="SourceGraphic" in2="effect1_dropShadow_9082_243" result="shape"/>
</filter>
<linearGradient id="paint0_linear_9082_243" x1="18" y1="0" x2="18" y2="36" gradientUnits="userSpaceOnUse">
<stop stop-color="#284A90"/>
<stop offset="1" stop-color="#284A90" stop-opacity="0.4"/>
</linearGradient>
<linearGradient id="paint1_linear_9082_243" x1="18" y1="0" x2="18" y2="36" gradientUnits="userSpaceOnUse">
<stop stop-color="#749FF6"/>
<stop offset="0.430493" stop-color="#153984"/>
</linearGradient>
<linearGradient id="paint2_linear_9082_243" x1="18.1119" y1="8.67353" x2="18.1119" y2="27.3225" gradientUnits="userSpaceOnUse">
<stop stop-color="#8096CB"/>
<stop offset="1" stop-color="#8096CB" stop-opacity="0.5"/>
</linearGradient>
<clipPath id="clip0_9082_243">
<rect width="36" height="36" fill="white"/>
</clipPath>
</defs>
</svg>
