<svg width="36" height="36" viewBox="0 0 36 36" fill="none" xmlns="http://www.w3.org/2000/svg">
<g clip-path="url(#clip0_9082_240)">
<g filter="url(#filter0_d_9082_240)">
<rect width="36" height="36" rx="9.24998" fill="url(#paint0_linear_9082_240)" fill-opacity="0.35" shape-rendering="crispEdges"/>
<rect x="0.660713" y="0.660713" width="34.6786" height="34.6786" rx="8.58927" stroke="url(#paint1_linear_9082_240)" stroke-opacity="0.3" stroke-width="1.32143" shape-rendering="crispEdges"/>
</g>
<path fill-rule="evenodd" clip-rule="evenodd" d="M15.0943 10.3276C14.6156 10.3276 14.2275 9.93952 14.2275 9.46078V7.43813C14.2275 6.95939 14.6156 6.57129 15.0943 6.57129C15.5731 6.57129 15.9612 6.95939 15.9612 7.43813V9.46078C15.9612 9.93952 15.5731 10.3276 15.0943 10.3276ZM21.7412 13.9377L13.9396 13.9377L13.9396 21.7393L21.7412 21.7393L21.7412 13.9377ZM13.9396 12.204C12.9821 12.204 12.2059 12.9802 12.2059 13.9377V21.7393C12.2059 22.6968 12.9821 23.473 13.9396 23.473H21.7412C22.6987 23.473 23.4749 22.6968 23.4749 21.7393V13.9377C23.4749 12.9802 22.6987 12.204 21.7412 12.204H13.9396ZM14.2275 28.2423C14.2275 28.721 14.6156 29.1091 15.0943 29.1091C15.5731 29.1091 15.9612 28.721 15.9612 28.2423V26.2196C15.9612 25.7409 15.5731 25.3528 15.0943 25.3528C14.6156 25.3528 14.2275 25.7409 14.2275 26.2196V28.2423ZM20.7289 10.3276C20.2502 10.3276 19.8621 9.93952 19.8621 9.46078V7.43813C19.8621 6.95939 20.2502 6.57129 20.7289 6.57129C21.2076 6.57129 21.5957 6.95939 21.5957 7.43813V9.46078C21.5957 9.93952 21.2076 10.3276 20.7289 10.3276ZM19.8621 28.2423C19.8621 28.721 20.2502 29.1091 20.7289 29.1091C21.2076 29.1091 21.5957 28.721 21.5957 28.2423V26.2196C21.5957 25.7409 21.2076 25.3528 20.7289 25.3528C20.2502 25.3528 19.8621 25.7409 19.8621 26.2196V28.2423ZM6.57147 15.0974C6.57147 14.6186 6.95957 14.2305 7.43832 14.2305H9.46096C9.93971 14.2305 10.3278 14.6186 10.3278 15.0974C10.3278 15.5761 9.93971 15.9642 9.46096 15.9642H7.43832C6.95957 15.9642 6.57147 15.5761 6.57147 15.0974ZM26.2211 14.2305C25.7424 14.2305 25.3543 14.6186 25.3543 15.0974C25.3543 15.5761 25.7424 15.9642 26.2211 15.9642H28.2437C28.7225 15.9642 29.1106 15.5761 29.1106 15.0974C29.1106 14.6186 28.7225 14.2305 28.2437 14.2305H26.2211ZM25.3543 20.7284C25.3543 20.2496 25.7424 19.8615 26.2211 19.8615H28.2437C28.7225 19.8615 29.1106 20.2496 29.1106 20.7284C29.1106 21.2071 28.7225 21.5952 28.2437 21.5952H26.2211C25.7424 21.5952 25.3543 21.2071 25.3543 20.7284ZM7.43832 19.8615C6.95957 19.8615 6.57147 20.2496 6.57147 20.7284C6.57147 21.2071 6.95957 21.5952 7.43832 21.5952H9.46096C9.93971 21.5952 10.3278 21.2071 10.3278 20.7284C10.3278 20.2496 9.93971 19.8615 9.46096 19.8615H7.43832Z" fill="url(#paint2_linear_9082_240)"/>
</g>
<defs>
<filter id="filter0_d_9082_240" x="-8.67186" y="-8.67186" width="53.3437" height="53.3437" filterUnits="userSpaceOnUse" color-interpolation-filters="sRGB">
<feFlood flood-opacity="0" result="BackgroundImageFix"/>
<feColorMatrix in="SourceAlpha" type="matrix" values="0 0 0 0 0 0 0 0 0 0 0 0 0 0 0 0 0 0 127 0" result="hardAlpha"/>
<feOffset/>
<feGaussianBlur stdDeviation="4.33593"/>
<feComposite in2="hardAlpha" operator="out"/>
<feColorMatrix type="matrix" values="0 0 0 0 0 0 0 0 0 0 0 0 0 0 0 0 0 0 0.4 0"/>
<feBlend mode="normal" in2="BackgroundImageFix" result="effect1_dropShadow_9082_240"/>
<feBlend mode="normal" in="SourceGraphic" in2="effect1_dropShadow_9082_240" result="shape"/>
</filter>
<linearGradient id="paint0_linear_9082_240" x1="18" y1="0" x2="18" y2="36" gradientUnits="userSpaceOnUse">
<stop stop-color="#284A90"/>
<stop offset="1" stop-color="#284A90" stop-opacity="0.4"/>
</linearGradient>
<linearGradient id="paint1_linear_9082_240" x1="18" y1="0" x2="18" y2="36" gradientUnits="userSpaceOnUse">
<stop stop-color="#749FF6"/>
<stop offset="0.430493" stop-color="#153984"/>
</linearGradient>
<linearGradient id="paint2_linear_9082_240" x1="17.8449" y1="6.08712" x2="17.8449" y2="29.5955" gradientUnits="userSpaceOnUse">
<stop stop-color="#8096CC"/>
<stop offset="1" stop-color="#8096CB" stop-opacity="0.5"/>
</linearGradient>
<clipPath id="clip0_9082_240">
<rect width="36" height="36" fill="white"/>
</clipPath>
</defs>
</svg>
