<svg width="16" height="16" viewBox="0 0 16 16" fill="none" xmlns="http://www.w3.org/2000/svg">
<g clip-path="url(#clip0_124_336)">
<path fill-rule="evenodd" clip-rule="evenodd" d="M0 7.85046C0 3.59838 3.64769 0.152344 7.98 0.152344C12.3077 0.152344 15.8246 3.73423 15.8246 7.9848C15.8246 12.2354 12.3108 15.8142 7.97846 15.8142L0 15.8218V7.85046ZM5.65939 3.75696C6.39156 3.34837 7.21931 3.1333 8.06164 3.13281H8.06625C8.7915 3.13316 9.50749 3.29266 10.1618 3.59962C10.8161 3.90659 11.3921 4.35325 11.8477 4.9069C12.3033 5.46055 12.6269 6.10717 12.7948 6.7994C12.9627 7.49164 12.9707 8.21195 12.8182 8.90761C12.6657 9.60326 12.3565 10.2566 11.9133 10.8199C11.4701 11.3831 10.9041 11.842 10.2567 12.1628C9.60942 12.4837 8.89713 12.6584 8.17206 12.6743C7.44699 12.6901 6.72749 12.5466 6.06625 12.2543L2.90625 12.9547L3.78625 10.1773C3.38533 9.45053 3.18364 8.63403 3.20091 7.80778C3.21818 6.98152 3.45383 6.17383 3.88478 5.46375C4.31573 4.75368 4.92722 4.16556 5.65939 3.75696Z" fill="currentColor"/>
</g>
<defs>
<clipPath id="clip0_124_336">
<rect width="16" height="16" fill="white"/>
</clipPath>
</defs>
</svg>
