<svg width="195" height="75" viewBox="0 0 195 75" fill="none" xmlns="http://www.w3.org/2000/svg">
<path d="M34.7259 11.3329C34.7259 13.8929 32.6741 15.9803 30.1577 15.9803C27.6413 15.9803 25.5895 13.8929 25.5895 11.3329C25.5895 8.77287 27.6413 6.68548 30.1577 6.68548C32.6741 6.68548 34.7259 8.77287 34.7259 11.3329ZM10.7236 25.9446C11.1882 25.7083 11.5753 25.4326 11.9237 25.0387C12.7367 24.2116 13.2013 23.1089 13.2787 21.9667C13.3174 21.4153 13.2013 20.9427 13.1626 20.3913C13.1239 19.8399 13.2013 19.2492 13.3561 18.6978C14.0143 16.4135 16.2983 14.9956 18.5824 15.3895C20.7504 15.7439 22.957 14.523 23.7313 12.4356C24.4669 10.5058 23.8474 8.22148 22.2215 6.96117C20.6342 5.70087 18.3502 5.70087 16.6855 6.88241C15.7951 7.55194 15.1369 8.53656 14.866 9.63933C14.7498 10.1907 14.7111 10.7421 14.7885 11.2935C14.866 11.8055 14.9047 12.3175 14.866 12.8689C14.595 15.2319 12.5819 17.0436 10.2591 17.083C9.7558 17.083 9.25253 16.9649 8.71054 16.9255C8.16856 16.9255 7.62657 17.0043 7.08458 17.2012C6.03932 17.5556 5.14892 18.3433 4.60693 19.2886C3.60039 21.0609 3.87138 23.3846 5.26506 24.8812C6.65874 26.4566 8.90411 26.8504 10.7236 25.9446ZM17.6533 17.8313C17.2275 18.0676 16.8016 18.3433 16.4532 18.6978C15.6789 19.4855 15.1757 20.5882 15.1369 21.7304C15.0982 22.2424 15.2144 22.7544 15.2531 23.2664C15.2918 23.8178 15.2144 24.3692 15.0595 24.9206C14.4014 27.1261 12.156 28.5439 9.94937 28.1501C7.82014 27.7956 5.6909 28.9772 4.91664 31.0646C4.18109 32.955 4.8005 35.1606 6.42646 36.4209C8.0137 37.6418 10.2204 37.6812 11.8463 36.4996C12.7367 35.8301 13.3948 34.8849 13.6271 33.7821C13.7433 33.2701 13.782 32.6793 13.7046 32.1673C13.6271 31.6553 13.5884 31.1433 13.6271 30.6313C13.8594 28.3076 15.8338 26.5353 18.1179 26.5353C18.6211 26.5353 19.1244 26.6535 19.6277 26.6929C20.1697 26.6929 20.7117 26.6141 21.2149 26.4172C22.2215 26.0627 23.1119 25.3144 23.6539 24.3692C24.6604 22.6362 24.3894 20.3519 23.0345 18.8553C21.6408 17.3587 19.4341 16.9255 17.6533 17.8313Z" fill="white"/>
<g filter="url(#filter0_d_124_1096)">
<path d="M32.2054 24.5852H38.1739C40.2499 24.5852 42.0376 25.0177 43.5657 25.8539C45.0939 26.6901 46.2761 27.8722 47.0834 29.3716C47.8907 30.8997 48.3232 32.6586 48.3232 34.6769C48.3232 36.6952 47.8907 38.4541 47.0834 39.9822C46.2761 41.5104 45.0939 42.6926 43.5657 43.5287C42.0376 44.3649 40.2499 44.7686 38.1739 44.7686H32.2054V24.5852ZM38.1739 42.4619C40.5671 42.4619 42.4412 41.7699 43.7676 40.3571C45.0939 38.9731 45.7571 37.0701 45.7571 34.6769C45.7571 32.2837 45.0939 30.3807 43.7676 28.9967C42.4412 27.6127 40.5959 26.8919 38.1739 26.8919H34.7139V42.4619H38.1739ZM51.205 33.4659C51.7817 32.3414 52.6178 31.4764 53.6847 30.8421C54.7227 30.2077 55.9337 29.8906 57.3177 29.8906C58.644 29.8906 59.855 30.1789 60.893 30.7267C61.931 31.3034 62.7383 32.1107 63.3438 33.1487C63.9205 34.2156 64.2377 35.4554 64.2953 36.8682C64.2953 37.0989 64.2665 37.4161 64.2377 37.8774H52.8197V38.0792C52.8485 39.5209 53.281 40.6742 54.146 41.5392C54.9822 42.4042 56.0778 42.8367 57.4618 42.8367C58.4998 42.8367 59.3937 42.5772 60.1433 42.0582C60.893 41.5392 61.3832 40.7896 61.6427 39.8381H64.0358C63.7475 41.3374 63.0267 42.5772 61.8733 43.5287C60.72 44.4802 59.3072 44.9416 57.6348 44.9416C56.1643 44.9416 54.8957 44.6532 53.8 44.0189C52.7043 43.3846 51.8393 42.5196 51.2338 41.3662C50.6283 40.2129 50.34 38.9154 50.34 37.4161C50.34 35.9167 50.6283 34.6192 51.205 33.4659ZM61.8445 35.9167C61.7292 34.6769 61.239 33.6966 60.4317 33.0046C59.6243 32.3126 58.5863 31.9666 57.3465 31.9666C56.222 31.9666 55.2417 32.3414 54.4055 33.0622C53.5405 33.8119 53.0792 34.7634 52.9638 35.9167H61.8445ZM64.6713 30.0636H67.2086L71.649 42.0871L76.0605 30.0636H78.5401L73.033 44.7686H70.1785L64.6713 30.0636ZM97.6339 39.9534C96.8265 41.5104 95.6732 42.7502 94.2315 43.6152C92.761 44.5091 91.0887 44.9416 89.2434 44.9416C87.3692 44.9416 85.6969 44.5091 84.2552 43.6152C82.7847 42.7502 81.6314 41.5104 80.824 39.9534C80.0167 38.3964 79.613 36.6376 79.613 34.6769C79.613 32.7162 80.0167 30.9574 80.824 29.4004C81.6314 27.8434 82.7847 26.6324 84.2552 25.7386C85.6969 24.8736 87.3692 24.4122 89.2434 24.4122C91.0887 24.4122 92.761 24.8736 94.2315 25.7386C95.6732 26.6324 96.8265 27.8434 97.6339 29.4004C98.4412 30.9574 98.8737 32.7162 98.8737 34.6769C98.8737 36.6376 98.4412 38.3964 97.6339 39.9534ZM83.073 38.8001C83.6497 40.0111 84.4859 40.9337 85.5527 41.6257C86.6195 42.3177 87.8594 42.6349 89.2434 42.6349C90.6274 42.6349 91.8384 42.3177 92.9052 41.6257C93.972 40.9337 94.8082 40.0111 95.4137 38.8001C95.9904 37.5891 96.3075 36.2339 96.3075 34.6769C96.3075 33.1487 95.9904 31.7936 95.4137 30.5826C94.8082 29.3716 93.972 28.4489 92.9052 27.7569C91.8384 27.0649 90.6274 26.7189 89.2434 26.7189C87.8594 26.7189 86.6195 27.0649 85.5527 27.7569C84.4859 28.4489 83.6497 29.3716 83.073 30.5826C82.4675 31.7936 82.1792 33.1487 82.1792 34.6769C82.1792 36.2339 82.4675 37.5891 83.073 38.8001ZM112.453 30.7844C113.52 31.3899 114.356 32.2549 114.961 33.3794C115.567 34.5327 115.884 35.8591 115.884 37.4161C115.884 38.9154 115.567 40.2129 114.961 41.3374C114.356 42.4907 113.52 43.3557 112.453 43.9901C111.357 44.6244 110.146 44.9416 108.82 44.9416C107.609 44.9416 106.6 44.7397 105.764 44.3072C104.899 43.8747 104.235 43.2692 103.774 42.5196V50.5352H101.41V30.0636H103.457L103.774 32.4279C104.985 30.7556 106.686 29.8906 108.82 29.8906C110.175 29.8906 111.386 30.2077 112.453 30.7844ZM112.107 41.3374C113.001 40.3282 113.462 39.0307 113.462 37.4161C113.462 35.8302 113.001 34.5327 112.107 33.5236C111.213 32.5144 110.031 31.9954 108.589 31.9954C107.638 31.9954 106.802 32.2261 106.052 32.6874C105.302 33.1487 104.754 33.7831 104.351 34.5904C103.947 35.3977 103.745 36.3204 103.745 37.3584C103.745 38.4252 103.947 39.3767 104.351 40.2129C104.754 41.0491 105.302 41.6834 106.052 42.1447C106.802 42.6061 107.638 42.8367 108.589 42.8367C110.031 42.8367 111.213 42.3466 112.107 41.3374ZM119.109 32.2261H116.456V30.0636H119.109V25.9404H121.473V30.0636H125.193V32.2261H121.473V40.9049C121.473 41.5392 121.589 41.9717 121.819 42.2312C122.05 42.4907 122.482 42.6061 123.088 42.6061H125.654V44.7686H122.944C121.56 44.7686 120.551 44.4802 119.974 43.8459C119.397 43.2404 119.109 42.2601 119.109 40.9337V32.2261ZM129.326 24.8159C129.614 25.1042 129.758 25.4791 129.758 25.9116C129.758 26.3729 129.614 26.7189 129.326 27.0072C129.037 27.2956 128.662 27.4397 128.23 27.4397C127.769 27.4397 127.423 27.2956 127.134 27.0072C126.846 26.7189 126.702 26.3729 126.702 25.9116C126.702 25.4791 126.846 25.1042 127.134 24.8159C127.423 24.5276 127.769 24.3834 128.23 24.3834C128.662 24.3834 129.037 24.5276 129.326 24.8159ZM127.048 30.0636H129.412V44.7686H127.048V30.0636ZM152.777 31.4476C153.815 32.4856 154.334 34.1002 154.334 36.2916V44.7686H151.969V36.4357C151.969 35.0229 151.652 33.9272 151.047 33.1776C150.441 32.4279 149.576 32.0531 148.481 32.0531C147.241 32.0531 146.26 32.4856 145.568 33.3506C144.876 34.2156 144.53 35.3977 144.53 36.8971V44.7686H142.166V36.4357C142.166 35.0229 141.849 33.9272 141.243 33.1776C140.609 32.4279 139.744 32.0531 138.62 32.0531C137.409 32.0531 136.457 32.5144 135.765 33.4371C135.073 34.3597 134.727 35.5419 134.727 37.0124V44.7686H132.363V30.0636H134.41L134.727 32.0819C135.765 30.6402 137.207 29.8906 139.023 29.8906C140.061 29.8906 141.013 30.1501 141.82 30.6114C142.627 31.0727 143.262 31.7647 143.665 32.6874C144.703 30.8421 146.405 29.8906 148.769 29.8906C150.412 29.8906 151.739 30.4096 152.777 31.4476ZM170.832 42.6061V44.7686H169.534C168.583 44.7686 167.92 44.5956 167.516 44.1919C167.112 43.8171 166.882 43.2404 166.882 42.4907C165.728 44.1342 164.085 44.9416 161.951 44.9416C160.308 44.9416 158.981 44.5667 158.001 43.7882C157.021 43.0386 156.53 41.9717 156.53 40.6454C156.53 39.1749 157.021 38.0504 158.03 37.2431C159.039 36.4646 160.509 36.0609 162.441 36.0609H166.766V35.0517C166.766 34.1002 166.42 33.3506 165.786 32.8027C165.152 32.2837 164.258 31.9954 163.104 31.9954C162.066 31.9954 161.23 32.2261 160.567 32.6874C159.904 33.1487 159.5 33.7254 159.356 34.4751H156.992C157.165 33.0334 157.799 31.9089 158.895 31.1016C159.99 30.2942 161.432 29.8906 163.22 29.8906C165.094 29.8906 166.536 30.3519 167.574 31.2746C168.612 32.1972 169.131 33.4947 169.131 35.1959V41.5392C169.131 42.2601 169.448 42.6061 170.111 42.6061H170.832ZM166.766 38.0504H162.211C160.019 38.0504 158.924 38.8866 158.924 40.5012C158.924 41.2509 159.212 41.8276 159.789 42.2601C160.365 42.7214 161.144 42.9232 162.124 42.9232C163.566 42.9232 164.69 42.5484 165.526 41.7987C166.334 41.0491 166.766 40.0399 166.766 38.7712V38.0504Z" fill="white"/>
</g>
<defs>
<filter id="filter0_d_124_1096" x="8.17762" y="0.35601" width="186.682" height="74.2069" filterUnits="userSpaceOnUse" color-interpolation-filters="sRGB">
<feFlood flood-opacity="0" result="BackgroundImageFix"/>
<feColorMatrix in="SourceAlpha" type="matrix" values="0 0 0 0 0 0 0 0 0 0 0 0 0 0 0 0 0 0 127 0" result="hardAlpha"/>
<feOffset/>
<feGaussianBlur stdDeviation="12.0139"/>
<feComposite in2="hardAlpha" operator="out"/>
<feColorMatrix type="matrix" values="0 0 0 0 1 0 0 0 0 1 0 0 0 0 1 0 0 0 0.2 0"/>
<feBlend mode="normal" in2="BackgroundImageFix" result="effect1_dropShadow_124_1096"/>
<feBlend mode="normal" in="SourceGraphic" in2="effect1_dropShadow_124_1096" result="shape"/>
</filter>
</defs>
</svg>
