<svg width="39" height="40" viewBox="0 0 39 40" fill="none" xmlns="http://www.w3.org/2000/svg">
<path d="M34.7259 9.33287C34.7259 11.8929 32.6741 13.9803 30.1577 13.9803C27.6413 13.9803 25.5895 11.8929 25.5895 9.33287C25.5895 6.77287 27.6413 4.68548 30.1577 4.68548C32.6741 4.68548 34.7259 6.77287 34.7259 9.33287ZM10.7236 23.9446C11.1882 23.7082 11.5753 23.4326 11.9237 23.0387C12.7367 22.2116 13.2013 21.1089 13.2787 19.9667C13.3174 19.4153 13.2013 18.9427 13.1626 18.3913C13.1239 17.8399 13.2013 17.2492 13.3561 16.6978C14.0143 14.4135 16.2983 12.9956 18.5824 13.3895C20.7504 13.7439 22.957 12.523 23.7313 10.4356C24.4668 8.50579 23.8474 6.22148 22.2215 4.96117C20.6342 3.70087 18.3502 3.70087 16.6855 4.88241C15.7951 5.55194 15.1369 6.53656 14.866 7.63933C14.7498 8.19071 14.7111 8.7421 14.7885 9.29348C14.866 9.80548 14.9047 10.3175 14.866 10.8689C14.595 13.2319 12.5819 15.0436 10.2591 15.083C9.7558 15.083 9.25253 14.9649 8.71054 14.9255C8.16856 14.9255 7.62657 15.0043 7.08458 15.2012C6.03932 15.5556 5.14892 16.3433 4.60693 17.2886C3.60039 19.0609 3.87138 21.3846 5.26506 22.8812C6.65874 24.4566 8.90411 24.8504 10.7236 23.9446ZM17.6533 15.8313C17.2275 16.0676 16.8016 16.3433 16.4532 16.6978C15.6789 17.4855 15.1757 18.5882 15.1369 19.7304C15.0982 20.2424 15.2144 20.7544 15.2531 21.2664C15.2918 21.8178 15.2144 22.3692 15.0595 22.9206C14.4014 25.1261 12.156 26.5439 9.94937 26.1501C7.82014 25.7956 5.6909 26.9772 4.91664 29.0646C4.18109 30.955 4.8005 33.1606 6.42646 34.4209C8.0137 35.6418 10.2204 35.6812 11.8463 34.4996C12.7367 33.8301 13.3948 32.8849 13.6271 31.7821C13.7433 31.2701 13.782 30.6793 13.7046 30.1673C13.6271 29.6553 13.5884 29.1433 13.6271 28.6313C13.8594 26.3076 15.8338 24.5353 18.1179 24.5353C18.6211 24.5353 19.1244 24.6535 19.6277 24.6929C20.1697 24.6929 20.7117 24.6141 21.2149 24.4172C22.2215 24.0627 23.1119 23.3144 23.6539 22.3692C24.6604 20.6362 24.3894 18.3519 23.0345 16.8553C21.6408 15.3587 19.4341 14.9255 17.6533 15.8313Z" fill="white"/>
</svg>
