<svg width="173" height="48" viewBox="0 0 173 48" fill="none" xmlns="http://www.w3.org/2000/svg">
<g clip-path="url(#clip0_124_1096)">
<path d="M34.7259 9.33287C34.7259 11.8929 32.6741 13.9803 30.1577 13.9803C27.6413 13.9803 25.5895 11.8929 25.5895 9.33287C25.5895 6.77287 27.6413 4.68548 30.1577 4.68548C32.6741 4.68548 34.7259 6.77287 34.7259 9.33287ZM10.7236 23.9446C11.1882 23.7083 11.5753 23.4326 11.9237 23.0387C12.7367 22.2116 13.2013 21.1089 13.2787 19.9667C13.3174 19.4153 13.2013 18.9427 13.1626 18.3913C13.1239 17.8399 13.2013 17.2492 13.3561 16.6978C14.0143 14.4135 16.2983 12.9956 18.5824 13.3895C20.7504 13.7439 22.957 12.523 23.7313 10.4356C24.4669 8.50579 23.8474 6.22148 22.2215 4.96117C20.6342 3.70087 18.3502 3.70087 16.6855 4.88241C15.7951 5.55194 15.1369 6.53656 14.866 7.63933C14.7498 8.19071 14.7111 8.7421 14.7885 9.29348C14.866 9.80548 14.9047 10.3175 14.866 10.8689C14.595 13.2319 12.5819 15.0436 10.2591 15.083C9.7558 15.083 9.25253 14.9649 8.71054 14.9255C8.16856 14.9255 7.62657 15.0043 7.08458 15.2012C6.03932 15.5556 5.14892 16.3433 4.60693 17.2886C3.60039 19.0609 3.87138 21.3846 5.26506 22.8812C6.65874 24.4566 8.90411 24.8504 10.7236 23.9446ZM17.6533 15.8313C17.2275 16.0676 16.8016 16.3433 16.4532 16.6978C15.6789 17.4855 15.1757 18.5882 15.1369 19.7304C15.0982 20.2424 15.2144 20.7544 15.2531 21.2664C15.2918 21.8178 15.2144 22.3692 15.0595 22.9206C14.4014 25.1261 12.156 26.5439 9.94937 26.1501C7.82014 25.7956 5.6909 26.9772 4.91664 29.0646C4.18109 30.955 4.8005 33.1606 6.42646 34.4209C8.0137 35.6418 10.2204 35.6812 11.8463 34.4996C12.7367 33.8301 13.3948 32.8849 13.6271 31.7821C13.7433 31.2701 13.782 30.6793 13.7046 30.1673C13.6271 29.6553 13.5884 29.1433 13.6271 28.6313C13.8594 26.3076 15.8338 24.5353 18.1179 24.5353C18.6211 24.5353 19.1244 24.6535 19.6277 24.6929C20.1697 24.6929 20.7117 24.6141 21.2149 24.4172C22.2215 24.0627 23.1119 23.3144 23.6539 22.3692C24.6604 20.6362 24.3894 18.3519 23.0345 16.8553C21.6408 15.3587 19.4341 14.9255 17.6533 15.8313Z" fill="white"/>
<g filter="url(#filter0_d_124_1096)">
<path d="M38.6641 40.7686H32.2054V20.5852H38.6641C41.7973 20.5852 44.2673 21.5079 46.0742 23.3532C47.9003 25.1793 48.8134 27.6206 48.8134 30.6769C48.8134 33.714 47.9003 36.1552 46.0742 38.0006C44.2673 39.8459 41.7973 40.7686 38.6641 40.7686ZM34.7139 22.8919V38.4619H38.6641C41.0668 38.4619 42.9314 37.7603 44.2577 36.3571C45.5841 34.9538 46.2472 33.0604 46.2472 30.6769C46.2472 28.2741 45.5841 26.3807 44.2577 24.9967C42.9506 23.5935 41.0861 22.8919 38.6641 22.8919H34.7139ZM58.1135 40.9416C55.9222 40.9416 54.1537 40.2496 52.8082 38.8656C51.4818 37.4816 50.8187 35.6651 50.8187 33.4161C50.8187 31.1863 51.4626 29.3794 52.7505 27.9954C54.0384 26.5922 55.7203 25.8906 57.7963 25.8906C59.8916 25.8906 61.5639 26.5153 62.8133 27.7647C64.0628 28.9949 64.7163 30.6961 64.774 32.8682C64.774 33.0797 64.7548 33.4161 64.7163 33.8774H53.2983V34.0792C53.3368 35.5017 53.7693 36.655 54.5958 37.5392C55.4416 38.4042 56.5565 38.8367 57.9405 38.8367C58.9977 38.8367 59.8916 38.5772 60.622 38.0582C61.3717 37.52 61.8714 36.7799 62.1213 35.8381H64.5145C64.2262 37.3374 63.5053 38.5676 62.352 39.5287C61.1987 40.4706 59.7858 40.9416 58.1135 40.9416ZM53.4425 31.9167H62.2367C62.1213 30.6673 61.6696 29.6966 60.8815 29.0046C60.0934 28.3126 59.0746 27.9666 57.8252 27.9666C56.7103 27.9666 55.7299 28.3318 54.8842 29.0622C54.0384 29.7927 53.5578 30.7442 53.4425 31.9167ZM70.5727 40.7686L65.0655 26.0636H67.6028L72.0432 38.0871L76.4547 26.0636H78.9343L73.4272 40.7686H70.5727ZM96.5576 23.3244C98.3645 25.2466 99.2679 27.6974 99.2679 30.6769C99.2679 33.6563 98.3645 36.1168 96.5576 38.0582C94.7699 39.9804 92.4632 40.9416 89.6376 40.9416C86.8119 40.9416 84.4956 39.9804 82.6887 38.0582C80.9011 36.1168 80.0072 33.6563 80.0072 30.6769C80.0072 27.6974 80.9011 25.2466 82.6887 23.3244C84.4956 21.3829 86.8119 20.4122 89.6376 20.4122C92.4632 20.4122 94.7699 21.3829 96.5576 23.3244ZM84.5341 24.9679C83.227 26.448 82.5734 28.351 82.5734 30.6769C82.5734 33.0028 83.227 34.9154 84.5341 36.4147C85.8412 37.8948 87.5424 38.6349 89.6376 38.6349C91.7328 38.6349 93.434 37.8948 94.7411 36.4147C96.0482 34.9154 96.7017 33.0028 96.7017 30.6769C96.7017 28.351 96.0482 26.448 94.7411 24.9679C93.434 23.4686 91.7328 22.7189 89.6376 22.7189C87.5424 22.7189 85.8412 23.4686 84.5341 24.9679ZM109.214 25.8906C111.29 25.8906 112.982 26.5633 114.289 27.9089C115.615 29.2352 116.278 31.0709 116.278 33.4161C116.278 35.6458 115.615 37.4623 114.289 38.8656C112.962 40.2496 111.271 40.9416 109.214 40.9416C106.869 40.9416 105.187 40.1342 104.168 38.5196V46.5352H101.804V26.0636H103.851L104.168 28.4279C105.398 26.7363 107.08 25.8906 109.214 25.8906ZM108.983 38.8367C110.444 38.8367 111.617 38.3369 112.501 37.3374C113.404 36.3186 113.856 35.0115 113.856 33.4161C113.856 31.8206 113.404 30.5231 112.501 29.5236C111.617 28.5048 110.444 27.9954 108.983 27.9954C107.542 27.9954 106.369 28.4952 105.466 29.4947C104.581 30.4943 104.139 31.7822 104.139 33.3584C104.139 34.9731 104.581 36.2898 105.466 37.3086C106.369 38.3273 107.542 38.8367 108.983 38.8367ZM119.618 36.9337V28.2261H116.966V26.0636H119.618V21.9404H121.983V26.0636H125.789V28.2261H121.983V36.9049C121.983 37.52 122.108 37.9621 122.358 38.2312C122.607 38.4811 123.05 38.6061 123.684 38.6061H126.019V40.7686H123.453C122.069 40.7686 121.079 40.461 120.483 39.8459C119.907 39.2308 119.618 38.2601 119.618 36.9337ZM130.086 23.1514C129.798 23.4397 129.433 23.5839 128.991 23.5839C128.549 23.5839 128.183 23.4397 127.895 23.1514C127.607 22.8631 127.463 22.4978 127.463 22.0557C127.463 21.6136 127.607 21.2484 127.895 20.9601C128.183 20.6717 128.549 20.5276 128.991 20.5276C129.433 20.5276 129.798 20.6717 130.086 20.9601C130.375 21.2484 130.519 21.6136 130.519 22.0557C130.519 22.4978 130.375 22.8631 130.086 23.1514ZM127.78 40.7686V26.0636H130.144V40.7686H127.78ZM149.501 25.8906C151.154 25.8906 152.49 26.4096 153.509 27.4476C154.547 28.4856 155.066 30.1002 155.066 32.2916V40.7686H152.701V32.4357C152.701 31.0133 152.394 29.9272 151.779 29.1776C151.183 28.4279 150.328 28.0531 149.213 28.0531C147.982 28.0531 147.012 28.4856 146.3 29.3506C145.608 30.2156 145.262 31.3977 145.262 32.8971V40.7686H142.898V32.4357C142.898 31.0133 142.591 29.9272 141.975 29.1776C141.36 28.4279 140.486 28.0531 139.352 28.0531C138.16 28.0531 137.208 28.5144 136.497 29.4371C135.805 30.3405 135.459 31.5323 135.459 33.0124V40.7686H133.095V26.0636H135.142L135.459 28.0819C136.516 26.621 137.948 25.8906 139.755 25.8906C140.813 25.8906 141.745 26.1308 142.552 26.6114C143.379 27.0727 143.994 27.7647 144.397 28.6874C145.455 26.8228 147.156 25.8906 149.501 25.8906ZM170.814 38.6061H171.564V40.7686H170.266C169.325 40.7686 168.652 40.5763 168.248 40.1919C167.844 39.8074 167.633 39.2404 167.614 38.4907C166.48 40.1246 164.836 40.9416 162.683 40.9416C161.049 40.9416 159.733 40.5571 158.733 39.7882C157.753 39.0193 157.263 37.9717 157.263 36.6454C157.263 35.1653 157.762 34.0312 158.762 33.2431C159.781 32.4549 161.251 32.0609 163.173 32.0609H167.498V31.0517C167.498 30.0906 167.172 29.3409 166.518 28.8027C165.884 28.2645 164.99 27.9954 163.837 27.9954C162.818 27.9954 161.972 28.2261 161.299 28.6874C160.646 29.1295 160.242 29.7254 160.088 30.4751H157.724C157.897 29.0334 158.531 27.9089 159.627 27.1016C160.742 26.2942 162.183 25.8906 163.952 25.8906C165.836 25.8906 167.287 26.3519 168.306 27.2746C169.344 28.178 169.863 29.4851 169.863 31.1959V37.6257C169.863 38.0102 169.93 38.2697 170.065 38.4042C170.218 38.5388 170.468 38.6061 170.814 38.6061ZM167.498 34.7712V34.0504H162.943C160.751 34.0504 159.656 34.8673 159.656 36.5012C159.656 37.2317 159.944 37.8179 160.521 38.2601C161.097 38.7022 161.876 38.9232 162.856 38.9232C164.298 38.9232 165.432 38.5484 166.259 37.7987C167.085 37.0298 167.498 36.0207 167.498 34.7712Z" fill="white"/>
</g>
</g>
<defs>
<filter id="filter0_d_124_1096" x="8.17762" y="-3.61567" width="187.414" height="74.1786" filterUnits="userSpaceOnUse" color-interpolation-filters="sRGB">
<feFlood flood-opacity="0" result="BackgroundImageFix"/>
<feColorMatrix in="SourceAlpha" type="matrix" values="0 0 0 0 0 0 0 0 0 0 0 0 0 0 0 0 0 0 127 0" result="hardAlpha"/>
<feOffset/>
<feGaussianBlur stdDeviation="12.0139"/>
<feComposite in2="hardAlpha" operator="out"/>
<feColorMatrix type="matrix" values="0 0 0 0 1 0 0 0 0 1 0 0 0 0 1 0 0 0 0.2 0"/>
<feBlend mode="normal" in2="BackgroundImageFix" result="effect1_dropShadow_124_1096"/>
<feBlend mode="normal" in="SourceGraphic" in2="effect1_dropShadow_124_1096" result="shape"/>
</filter>
<clipPath id="clip0_124_1096">
<rect width="173" height="48" fill="white"/>
</clipPath>
</defs>
</svg>
