<svg width="64" height="64" viewBox="0 0 64 64" fill="none" xmlns="http://www.w3.org/2000/svg">
<g clip-path="url(#clip0_9107_235)">
<g filter="url(#filter0_d_9107_235)">
<rect x="-0.0722656" y="0.0693359" width="64" height="64" rx="16" transform="rotate(-0.129846 -0.0722656 0.0693359)" fill="#7495D9" fill-opacity="0.08" shape-rendering="crispEdges"/>
<rect x="0.428866" y="0.568202" width="63" height="63" rx="15.5" transform="rotate(-0.129846 0.428866 0.568202)" stroke="url(#paint0_linear_9107_235)" stroke-opacity="0.3" shape-rendering="crispEdges"/>
</g>
<mask id="mask0_9107_235" style="mask-type:alpha" maskUnits="userSpaceOnUse" x="9" y="17" width="46" height="30">
<path fill-rule="evenodd" clip-rule="evenodd" d="M28.2428 19.2691C25.8996 16.9259 22.1006 16.9259 19.7575 19.2691L11.2722 27.7544C8.92905 30.0975 8.92905 33.8965 11.2722 36.2396L19.7575 44.7249C22.1006 47.0681 25.8996 47.0681 28.2428 44.7249L32.0001 40.9676L35.7575 44.7249C38.1006 47.0681 41.8996 47.0681 44.2428 44.7249L52.728 36.2396C55.0712 33.8965 55.0712 30.0975 52.728 27.7544L44.2428 19.2691C41.8996 16.9259 38.1006 16.9259 35.7575 19.2691L32.0001 23.0264L28.2428 19.2691ZM32.0001 23.0264L27.2722 27.7544C24.929 30.0975 24.929 33.8965 27.2722 36.2396L32.0001 40.9676L36.728 36.2396C39.0712 33.8965 39.0712 30.0975 36.728 27.7544L32.0001 23.0264Z" fill="#D9D9D9"/>
</mask>
<g mask="url(#mask0_9107_235)">
<path fill-rule="evenodd" clip-rule="evenodd" d="M-5.06128 37.3899L37.2114 -4.88281L37.9828 -4.11142L-4.28989 38.1613L-5.06128 37.3899ZM-3.51868 38.9329L38.754 -3.33978L39.5254 -2.56839L-2.7473 39.7043L-3.51868 38.9329ZM40.2969 -1.79763L-1.97581 40.4751L-1.20442 41.2465L41.0683 -1.02624L40.2969 -1.79763ZM-0.433014 42.0183L41.8397 -0.254416L42.6111 0.516973L0.338375 42.7897L-0.433014 42.0183ZM44.9252 2.83121L2.65243 45.1039L3.42382 45.8753L45.6966 3.6026L44.9252 2.83121ZM5.73806 48.189L48.0108 5.91624L48.7822 6.68763L6.50945 48.9604L5.73806 48.189ZM51.0963 9.00234L8.82359 51.2751L9.59498 52.0465L51.8677 9.77373L51.0963 9.00234ZM11.9092 54.3607L54.1819 12.088L54.9533 12.8593L12.6806 55.1321L11.9092 54.3607ZM57.2674 15.1731L14.9947 57.4458L15.766 58.2172L58.0388 15.9445L57.2674 15.1731ZM18.0803 60.5315L60.3531 18.2588L61.1245 19.0302L18.8517 61.3029L18.0803 60.5315ZM63.4385 21.3447L21.1658 63.6174L21.9372 64.3888L64.2099 22.1161L63.4385 21.3447ZM24.2515 66.7026L66.5242 24.4299L67.2956 25.2013L25.0229 67.474L24.2515 66.7026ZM43.3824 1.28823L1.1097 43.561L1.88109 44.3323L44.1538 2.05962L43.3824 1.28823ZM4.19518 46.6468L46.4679 4.37409L47.2393 5.14548L4.96657 47.4182L4.19518 46.6468ZM49.5536 7.4594L7.28088 49.7321L8.05226 50.5035L50.325 8.23079L49.5536 7.4594ZM10.3663 52.8178L52.639 10.5451L53.4104 11.3165L11.1377 53.5892L10.3663 52.8178ZM55.7247 13.6301L13.4519 55.9028L14.2233 56.6742L56.496 14.4015L55.7247 13.6301ZM16.5375 58.9889L58.8102 16.7162L59.5816 17.4875L17.3089 59.7603L16.5375 58.9889ZM61.8958 19.8018L19.6231 62.0746L20.3944 62.8459L62.6672 20.5732L61.8958 19.8018ZM22.7085 65.1597L64.9812 22.8869L65.7526 23.6583L23.4799 65.9311L22.7085 65.1597ZM68.067 25.9726L25.7942 68.2453L26.5656 69.0167L68.8383 26.744L68.067 25.9726Z" fill="url(#paint1_linear_9107_235)"/>
</g>
</g>
<defs>
<filter id="filter0_d_9107_235" x="-15.0361" y="-15.0391" width="94.0724" height="94.0723" filterUnits="userSpaceOnUse" color-interpolation-filters="sRGB">
<feFlood flood-opacity="0" result="BackgroundImageFix"/>
<feColorMatrix in="SourceAlpha" type="matrix" values="0 0 0 0 0 0 0 0 0 0 0 0 0 0 0 0 0 0 127 0" result="hardAlpha"/>
<feOffset/>
<feGaussianBlur stdDeviation="7.5"/>
<feComposite in2="hardAlpha" operator="out"/>
<feColorMatrix type="matrix" values="0 0 0 0 0 0 0 0 0 0 0 0 0 0 0 0 0 0 0.4 0"/>
<feBlend mode="normal" in2="BackgroundImageFix" result="effect1_dropShadow_9107_235"/>
<feBlend mode="normal" in="SourceGraphic" in2="effect1_dropShadow_9107_235" result="shape"/>
</filter>
<linearGradient id="paint0_linear_9107_235" x1="31.9277" y1="0.0693359" x2="31.9277" y2="64.0693" gradientUnits="userSpaceOnUse">
<stop stop-color="#749FF6"/>
<stop offset="0.430493" stop-color="#153984"/>
</linearGradient>
<linearGradient id="paint1_linear_9107_235" x1="31.8886" y1="-4.88281" x2="31.8886" y2="69.0166" gradientUnits="userSpaceOnUse">
<stop stop-color="#84ACFF"/>
<stop offset="1" stop-color="#3D79F5" stop-opacity="0.12"/>
</linearGradient>
<clipPath id="clip0_9107_235">
<rect width="64" height="64" fill="white"/>
</clipPath>
</defs>
</svg>
