<svg width="64" height="64" viewBox="0 0 64 64" fill="none" xmlns="http://www.w3.org/2000/svg">
<g clip-path="url(#clip0_9102_234)">
<g filter="url(#filter0_d_9102_234)">
<rect x="0.00012207" y="0.00195312" width="64" height="64" rx="16" fill="#7495D9" fill-opacity="0.08" shape-rendering="crispEdges"/>
<rect x="0.500122" y="0.501953" width="63" height="63" rx="15.5" stroke="url(#paint0_linear_9102_234)" stroke-opacity="0.3" shape-rendering="crispEdges"/>
</g>
<mask id="mask0_9102_234" style="mask-type:alpha" maskUnits="userSpaceOnUse" x="14" y="14" width="36" height="36">
<path fill-rule="evenodd" clip-rule="evenodd" d="M32 50C41.9411 50 50 41.9411 50 32C50 31.9499 49.9998 31.8999 49.9994 31.85C49.9336 38.2703 44.7086 43.4547 38.2727 43.4547C31.7959 43.4547 26.5455 38.2042 26.5455 31.7274C26.5455 25.2506 31.7959 20.0001 38.2727 20.0001C44.3663 20.0001 49.3743 24.6476 49.9457 30.5913C49.2271 21.3086 41.4671 14 32 14C22.0589 14 14 22.0589 14 32C14 41.9411 22.0589 50 32 50Z" fill="#D9D9D9"/>
</mask>
<g mask="url(#mask0_9102_234)">
<path fill-rule="evenodd" clip-rule="evenodd" d="M-5.09091 39.3635L37.1818 -2.90918L37.9532 -2.13779L-4.31952 40.1349L-5.09091 39.3635ZM-3.54832 40.9066L38.7244 -1.36615L39.4958 -0.594756L-2.77693 41.678L-3.54832 40.9066ZM40.2673 0.176002L-2.00544 42.4487L-1.23405 43.2201L41.0387 0.947391L40.2673 0.176002ZM-0.462646 43.9919L41.8101 1.71922L42.5815 2.49061L0.308743 44.7633L-0.462646 43.9919ZM44.8955 4.80484L2.6228 47.0776L3.39419 47.849L45.6669 5.57623L44.8955 4.80484ZM5.70843 50.1626L47.9812 7.88987L48.7525 8.66126L6.47982 50.934L5.70843 50.1626ZM51.0667 10.976L8.79396 53.2487L9.56535 54.0201L51.8381 11.7474L51.0667 10.976ZM11.8796 56.3343L54.1523 14.0616L54.9237 14.833L12.6509 57.1057L11.8796 56.3343ZM57.2377 17.1467L14.965 59.4194L15.7364 60.1908L58.0091 17.9181L57.2377 17.1467ZM18.0507 62.5052L60.3234 20.2324L61.0948 21.0038L18.8221 63.2766L18.0507 62.5052ZM63.4089 23.3183L21.1362 65.5911L21.9076 66.3625L64.1803 24.0897L63.4089 23.3183ZM24.2217 68.6763L66.4945 26.4035L67.2658 27.1749L24.9931 69.4477L24.2217 68.6763ZM43.3528 3.26186L1.08007 45.5346L1.85146 46.306L44.1242 4.03325L43.3528 3.26186ZM4.16555 48.6204L46.4383 6.34772L47.2097 7.11911L4.93694 49.3918L4.16555 48.6204ZM49.524 9.43303L7.25124 51.7058L8.02263 52.4771L50.2954 10.2044L49.524 9.43303ZM10.3367 54.7914L52.6094 12.5187L53.3808 13.2901L11.1081 55.5628L10.3367 54.7914ZM55.695 15.6037L13.4223 57.8765L14.1937 58.6479L56.4664 16.3751L55.695 15.6037ZM16.5079 60.9625L58.7806 18.6898L59.552 19.4612L17.2792 61.7339L16.5079 60.9625ZM61.8661 21.7755L19.5934 64.0482L20.3648 64.8196L62.6375 22.5468L61.8661 21.7755ZM22.6789 67.1333L64.9516 24.8606L65.723 25.632L23.4503 67.9047L22.6789 67.1333ZM68.0373 27.9462L25.7646 70.219L26.536 70.9904L68.8087 28.7176L68.0373 27.9462Z" fill="url(#paint1_linear_9102_234)"/>
</g>
<g opacity="0.6">
<mask id="mask1_9102_234" style="mask-type:alpha" maskUnits="userSpaceOnUse" x="14" y="14" width="36" height="36">
<path fill-rule="evenodd" clip-rule="evenodd" d="M32 50C41.9411 50 50 41.9411 50 32C50 22.0589 41.9411 14 32 14C22.5323 14 14.7719 21.3095 14.0542 30.5931C14.6247 24.6485 19.6332 20.0001 25.7273 20.0001C32.2041 20.0001 37.4546 25.2506 37.4546 31.7274C37.4546 38.2042 32.2041 43.4547 25.7273 43.4547C19.2908 43.4547 14.0654 38.2694 14.0006 31.8482C14.0002 31.8988 14 31.9494 14 32C14 41.9411 22.0589 50 32 50Z" fill="#D9D9D9"/>
</mask>
<g mask="url(#mask1_9102_234)">
<path fill-rule="evenodd" clip-rule="evenodd" d="M-4.93343 39.3635L37.3393 -2.90918L38.1107 -2.13779L-4.16204 40.1349L-4.93343 39.3635ZM-3.39083 40.9066L38.8819 -1.36615L39.6533 -0.594756L-2.61944 41.678L-3.39083 40.9066ZM40.4248 0.176002L-1.84795 42.4487L-1.07656 43.2201L41.1962 0.947391L40.4248 0.176002ZM-0.305162 43.9919L41.9676 1.71922L42.739 2.49061L0.466228 44.7633L-0.305162 43.9919ZM45.053 4.80484L2.78029 47.0776L3.55168 47.849L45.8244 5.57623L45.053 4.80484ZM5.86591 50.1626L48.1386 7.88987L48.91 8.66126L6.6373 50.934L5.86591 50.1626ZM51.2242 10.976L8.95145 53.2487L9.72284 54.0201L51.9956 11.7474L51.2242 10.976ZM12.037 56.3343L54.3098 14.0616L55.0812 14.833L12.8084 57.1057L12.037 56.3343ZM57.3952 17.1467L15.1225 59.4194L15.8939 60.1908L58.1666 17.9181L57.3952 17.1467ZM18.2082 62.5052L60.4809 20.2324L61.2523 21.0038L18.9796 63.2766L18.2082 62.5052ZM63.5664 23.3183L21.2936 65.5911L22.065 66.3625L64.3378 24.0897L63.5664 23.3183ZM24.3792 68.6763L66.6519 26.4035L67.4233 27.1749L25.1506 69.4477L24.3792 68.6763ZM43.5103 3.26186L1.23756 45.5346L2.00895 46.306L44.2817 4.03325L43.5103 3.26186ZM4.32304 48.6204L46.5958 6.34772L47.3672 7.11911L5.09443 49.3918L4.32304 48.6204ZM49.6815 9.43303L7.40873 51.7058L8.18012 52.4771L50.4528 10.2044L49.6815 9.43303ZM10.4942 54.7914L52.7669 12.5187L53.5383 13.2901L11.2655 55.5628L10.4942 54.7914ZM55.8525 15.6037L13.5798 57.8765L14.3512 58.6479L56.6239 16.3751L55.8525 15.6037ZM16.6653 60.9625L58.9381 18.6898L59.7094 19.4612L17.4367 61.7339L16.6653 60.9625ZM62.0236 21.7755L19.7509 64.0482L20.5223 64.8196L62.795 22.5468L62.0236 21.7755ZM22.8364 67.1333L65.1091 24.8606L65.8805 25.632L23.6078 67.9047L22.8364 67.1333ZM68.1948 27.9462L25.9221 70.219L26.6935 70.9904L68.9662 28.7176L68.1948 27.9462Z" fill="url(#paint2_linear_9102_234)"/>
</g>
</g>
</g>
<defs>
<filter id="filter0_d_9102_234" x="-14.9999" y="-14.998" width="94" height="94" filterUnits="userSpaceOnUse" color-interpolation-filters="sRGB">
<feFlood flood-opacity="0" result="BackgroundImageFix"/>
<feColorMatrix in="SourceAlpha" type="matrix" values="0 0 0 0 0 0 0 0 0 0 0 0 0 0 0 0 0 0 127 0" result="hardAlpha"/>
<feOffset/>
<feGaussianBlur stdDeviation="7.5"/>
<feComposite in2="hardAlpha" operator="out"/>
<feColorMatrix type="matrix" values="0 0 0 0 0 0 0 0 0 0 0 0 0 0 0 0 0 0 0.4 0"/>
<feBlend mode="normal" in2="BackgroundImageFix" result="effect1_dropShadow_9102_234"/>
<feBlend mode="normal" in="SourceGraphic" in2="effect1_dropShadow_9102_234" result="shape"/>
</filter>
<linearGradient id="paint0_linear_9102_234" x1="32.0001" y1="0.00195312" x2="32.0001" y2="64.002" gradientUnits="userSpaceOnUse">
<stop stop-color="#749FF6"/>
<stop offset="0.430493" stop-color="#153984"/>
</linearGradient>
<linearGradient id="paint1_linear_9102_234" x1="31.859" y1="-2.90918" x2="31.859" y2="70.9902" gradientUnits="userSpaceOnUse">
<stop stop-color="#84ACFF"/>
<stop offset="1" stop-color="#3D79F5" stop-opacity="0.12"/>
</linearGradient>
<linearGradient id="paint2_linear_9102_234" x1="32.0165" y1="-2.90918" x2="32.0165" y2="70.9902" gradientUnits="userSpaceOnUse">
<stop stop-color="#84ACFF"/>
<stop offset="1" stop-color="#3D79F5" stop-opacity="0.12"/>
</linearGradient>
<clipPath id="clip0_9102_234">
<rect width="64" height="64" fill="white"/>
</clipPath>
</defs>
</svg>
